<?xml version="1.0" encoding="UTF-8" standalone="no"?>
<!-- Uploaded to: SVG Repo, www.svgrepo.com, Generator: SVG Repo Mixer Tools -->

<svg
   fill="#000000"
   width="800px"
   height="800px"
   viewBox="0 0 256 256"
   id="Flat"
   version="1.1"
   sodipodi:docname="dice-0.svg"
   inkscape:version="1.2.2 (732a01da63, 2022-12-09)"
   xmlns:inkscape="http://www.inkscape.org/namespaces/inkscape"
   xmlns:sodipodi="http://sodipodi.sourceforge.net/DTD/sodipodi-0.dtd"
   xmlns="http://www.w3.org/2000/svg"
   xmlns:svg="http://www.w3.org/2000/svg">
  <defs
     id="defs7" />
  <sodipodi:namedview
     id="namedview5"
     pagecolor="#ffffff"
     bordercolor="#000000"
     borderopacity="0.25"
     inkscape:showpageshadow="2"
     inkscape:pageopacity="0.0"
     inkscape:pagecheckerboard="0"
     inkscape:deskcolor="#d1d1d1"
     showgrid="false"
     inkscape:zoom="1.005"
     inkscape:cx="400.49751"
     inkscape:cy="400.49751"
     inkscape:window-width="1920"
     inkscape:window-height="991"
     inkscape:window-x="-9"
     inkscape:window-y="-9"
     inkscape:window-maximized="1"
     inkscape:current-layer="Flat" />
  <path
     d="M 192,28 H 64 C 44.127026,28.02238 28.02238,44.127026 28,64 v 128 c 0.02238,19.87297 16.127026,35.97762 36,36 h 128 c 19.87297,-0.0224 35.97762,-16.12703 36,-36 V 64 C 227.97762,44.127026 211.87297,28.02238 192,28 Z m 12,164 c -0.007,6.62442 -5.37558,11.99277 -12,12 H 64 c -6.62442,-0.007 -11.992769,-5.37558 -12,-12 V 64 c 0.0072,-6.62442 5.37558,-11.992769 12,-12 h 128 c 6.62442,0.0072 11.99277,5.37558 12,12 z"
     id="path2"
     sodipodi:nodetypes="cccccccccccccccccc" />
</svg>
